<?xml version="1.0" standalone="no"?>
<!DOCTYPE svg PUBLIC "-//W3C//DTD SVG 20010904//EN"
 "http://www.w3.org/TR/2001/REC-SVG-20010904/DTD/svg10.dtd">
<svg
   preserveAspectRatio="xMinYMin meet"
   viewBox="442.5 0 577.47998 593"
   preserveAspectRatio="xMidYMid"
   version="1.1"
   id="svg32"
   xmlns="http://www.w3.org/2000/svg"
   xmlns:svg="http://www.w3.org/2000/svg"
   xmlns:rdf="http://www.w3.org/1999/02/22-rdf-syntax-ns#"
   xmlns:cc="http://creativecommons.org/ns#"
   xmlns:dc="http://purl.org/dc/elements/1.1/">
  <defs
     id="defs1">
    <!-- Color and Text Formats -->
    <style
       type="text/css"
       id="style1">
      .state{fill:#C0C0C0;}

        <!-- Democrats -->

        #AL, #AR, #GA, #IL, #IN, #LA, #ME, #MI, #MO, #MS,
        #NH, #NY, #PA, #SC, #VA,
        #Dem {fill: #698DC5;}

        <!-- Whigs -->

        #CT, #DE, #KY, #MA, #MD, #NC, #NJ, #OH, #RI, #TN,
        #VT,
        #Whig {fill: #f0c862;}

        <!-- Territories -->

        #DC, #FL, #IA, #WI, #Unorg,
        #Terr {fill: #808080;}

        <!-- Disputed Claim -->

        #Disp, #DisputedArea {fill: #bcbcbc;}

      .text{ font-size:28px;font-style:normal;font-variant:normal;font-weight:bold;font-stretch:normal;text-align:start;line-height:125%;text-anchor:start;fill:#000000;fill-opacity:1;stroke:none;font-family:Helvetica Neue;display:inline;}

    </style>
    <!-- Number of Electors -->
    <text
       id="ALn"> 9</text>
    <text
       id="ARn"> 3</text>
    <text
       id="GAn">10</text>
    <text
       id="INn">12</text>
    <text
       id="ILn"> 9</text>
    <text
       id="KYn">12</text>
    <text
       id="LAn"> 6</text>
    <text
       id="MEn"> 9</text>
    <text
       id="MIn"> 5</text>
    <text
       id="MOn"> 7</text>
    <text
       id="MSn"> 6</text>
    <text
       id="NCn">11</text>
    <text
       id="NYn">36</text>
    <text
       id="OHn">23</text>
    <text
       id="PAn">26</text>
    <text
       id="SCn"> 9</text>
    <text
       id="TNn">13</text>
    <text
       id="VAn">17</text>
    <!-- Combined State Names and Electors -->
    <text
       id="CTn">CT 6</text>
    <text
       id="DEn">DE 3</text>
    <text
       id="MAn">MA 12</text>
    <text
       id="MDn">MD 8</text>
    <text
       id="NHn">NH 6</text>
    <text
       id="NJn">NJ 7</text>
    <text
       id="RIn">RI 4</text>
    <text
       id="VTn">VT 6</text>
    <!-- State Splits -->
    <!-- Legends -->
    <text
       id="DemL">Polk</text>
    <text
       id="WhigL">Clay</text>
    <text
       id="TerrL">Territories</text>
    <text
       id="DispL">Disputed Claim</text>
  </defs>
  <g
     id="outlines"
     class="state">
    <path
       id="AL"
       d="M628.5 466.4l.6.2 1.3-2.7 1.5-4.4 2.3.6 3.1 6v1l-2.7 1.9 2.7.3 5.2-2.5-.3-7.6-2.5-1.8-2-2 .4-4 10.5-1.5 25.7-2.9 6.7-.6 5.6.1-.5-2.2-1.5-.8-.9-1.1 1-2.6-.4-5.2-1.6-4.5.8-5.1 1.7-4.8-.2-1.7-1.8-.7-.5-3.6-2.7-3.4-2-6.5-1.4-6.7-1.8-5-3.8-16-3.5-7.9-.8-5.6.1-2.2-9 .8-23.4 2.2-12.2.8-.2 6.4.2 16.7-.7 31-.3 14.1 2.8 18.8 1.6 14.7z" />
    <path
       id="AR"
       d="M587.3 346.1l-6.4-.7.9-3.1 3.1-2.6.6-2.3-1.8-2.9-31.9 1.2-23.3.7-23.6.3 1.5 6.9.1 8.5 1.4 10.9.3 38.2 2.1 1.6 3-1.2 2.9 1.2.4 10.1 25.2-.2 26.8-.8.9-1.9-.3-3.8-1.7-3.1 1.5-1.4-1.4-2.2.7-2.4 1.1-5.9 2.7-2.3-.8-2.2 4-5.6 2.5-1.1-.1-1.7-.5-1.7 2.9-5.8 2.5-1.1.2-3.3 2.1-1.4.9-4.1-1.4-4 4.2-2.4.3-2.1 1.2-4.2.9-3.1z" />
    <path
       id="CT"
       d="M852 190.9l3.6-3.2 1.9-2.1.8.6 2.7-1.5 5.2-1.1 7-3.5-.6-4.2-.8-4.4-1.6-6-4.3 1.1-21.8 4.7.6 3.1 1.5 7.3v8.3l-.9 2.1 1.7 2.2z" />
    <path
       id="DE"
       d="M834.4 247.2l-1 .5-3.6-2.4-1.8-4.7-1.9-3.6-2.3-1-2.1-3.6.5-2 .5-2.3.1-1.1-.6.1-1.7 1-2 1.7-.2.3 1.4 4.1 2.3 5.6 3.7 16.1 5-.3 6-1.1z" />
    <path
       id="FL"
       d="M750.2 445.2l-5.2-.7-.7.8 1.5 4.4-.4 5.2-4.1-1-.2-2.8H737l-5.3.7-32.4 1.9-8.2-.3-1.7-1.7-2.5-4.2H681l-6.6.5-35.4 4.2-.3 2.8 1.6 1.6 2.9 2 .3 8.4 3.3-.6 6-2.1 6-.5 4.4-.6 7.6 1.8 8.1 3.9 1.6 1.5 2.9 1.1 1.6 1.9.3 2.7 3.2-1.3h3.9l3.6-1.9 3.7-3.6 3.1.2.5-1.1-.8-1 .2-1.9 4-.8h2.6l2.9 1.5 4.2 1.5 2.4 3.7 2.7 1 1.1 3.4 3.4 1.6 1.6 2.6 1.9.6 5.2 1.3 1.3 3.1 3 3.7v9.5l-1.5 4.7.3 2.7 1.3 4.8 1.8 4 .8-.5 1.5-4.5-2.6-1-.3-.6 1.6-.6 4.5 1 .2 1.6-3.2 5.5-2.1 2.4 3.6 3.7 2.6 3.1 2.9 5.3 2.9 3.9 2.1 5 1.8.3 1.6-2.1 1.8 1.1 2.6 4 .6 3.6 3.1 4.4.8-1.3 3.9.3 3.6 2.3 3.4 5.2.8 3.4.3 2.9 1.1 1 1.3.5 2.4-1 1.5-1.6 3.9-.2 3.1-1.5 2.7-3.2-.5-1.9-.3-2.4.6-1.9-.3-1.9 2.4-1.3.3-3.4-.6-1.8-.5-12-1.3-7.6-4.5-8.2-3.6-5.8-2.6-5.3-2.9-2.9-2.9-7.4.7-1.4 1.1-1.3-1.6-2.9-4-3.7-4.8-5.5-3.7-6.3-5.3-9.4-3.7-9.7-2.3-7.3zm17.7 132.7l2.4-.6 1.3-.2 1.5-2.3 2.3-1.6 1.3.5 1.7.3.4 1.1-3.5 1.2-4.2 1.5-2.3 1.2zm13.5-5l1.2 1.1 2.7-2.1 5.3-4.2 3.7-3.9 2.5-6.6 1-1.7.2-3.4-.7.5-1 2.8-1.5 4.6-3.2 5.3-4.4 4.2-3.4 1.9z" />
    <path
       id="GA"
       d="M750.2 444.2l-5.6-.7-1.4 1.6 1.6 4.7-.3 3.9-2.2-.6-.2-3h-5.2l-5.3.7-32.3 1.9-7.7-.3-1.4-1.2-2.5-4.3-.8-3.3-1.6-.9-.5-.5.9-2.2-.4-5.5-1.6-4.5.8-4.9 1.7-4.8-.2-2.5-1.9-.7-.4-3.2-2.8-3.5-1.9-6.2-1.5-7-1.7-4.8-3.8-16-3.5-8-.8-5.3.1-2.3 3.3-.3 13.6-1.6 18.6-2 6.3-1.1.5 1.4-2.2.9-.9 2.2.4 2 1.4 1.6 4.3 2.7 3.2-.1 3.2 4.7.6 1.6 2.3 2.8.5 1.7 4.7 1.8 3 2.2 2.3 3 2.3 1.3 2 1.8 1.4 2.7 2.1 1.9 4.1 1.8 2.7 6 1.7 5.1 2.8.7 2.1 1.9 2 5.7 2.9 1.6 1.7-.8.4 1.2-3.3 6.2.5 2.6-1.5 4.2-2.3 10 .8 6.3z" />
    <path
       id="IA"
       d="m 555.34,173.26 -1.83,-2.18 -7.04,-4.52 -3.72,-5.29 -3.38,-0.99 -2.11,-2.68 h -3.17 l -3.12,-3.55 -1.38,-1.24 -1.47,-0.32 h -0.44 l -1.18,-1.37 -0.44,-0.56 -0.28,-0.19 -0.38,-0.13 -0.59,-0.47 -0.6,-0.62 -0.75,-1.28 -0.28,-0.16 -0.47,-0.1 -0.56,-0.1 -0.28,-0.13 -0.41,-0.25 -0.21,-0.31 -0.13,-0.47 -0.34,-0.13 -0.28,-0.15 -0.13,-0.16 -0.25,-0.59 v -0.81 l -0.28,-0.38 -0.28,-0.47 -0.19,-0.69 -0.28,-0.5 -0.84,-0.81 -0.69,-0.59 -1.03,-0.6 -1.1,-0.4 -0.62,-0.28 -0.38,-0.25 -0.81,-0.72 -0.44,-0.16 -0.87,-0.1 -0.56,-0.1 -1.16,-0.69 -0.44,-0.25 -0.62,-0.1 -0.44,-0.21 -0.5,-0.38 -0.38,-0.75 0.1,-1.78 -0.28,-0.16 -0.31,-0.25 -0.31,-0.53 -0.16,-0.72 c -0.1,-0.51 0,-0.84 0,-0.84 0.1,-0.23 0.1,-0.56 0.1,-0.56 0,0 0.1,-0.44 -0.1,-0.72 l -0.12,-0.22 -0.22,-0.16 -0.56,-0.4 c -0.23,-0.17 -0.29,-0.35 -0.29,-0.35 -0.16,-0.28 -0.1,-0.56 -0.1,-0.56 0.15,-0.48 0.1,-0.59 0.1,-0.59 l -0.1,-0.91 0.13,-1.47 -0.5,-0.1 h -0.31 l -0.19,-0.15 -0.13,-0.28 v -2.72 l 0.22,-1.16 v -0.78 l -0.12,-0.84 0.1,-0.69 0.12,-0.31 0.13,-0.25 0.31,-0.38 0.38,-0.4 0.37,-0.54 0.38,-0.93 0.25,-0.53 0.18,-0.29 0.16,-0.12 0.22,-0.1 0.19,-0.1 0.16,-0.1 0.28,-0.16 0.37,-0.28 0.25,-0.15 0.22,-0.13 0.22,-0.1 h 0.28 l 2.44,-0.38 0.69,-0.16 0.22,-0.4 0.25,-0.31 0.22,-0.25 0.21,-0.16 0.13,-0.1 0.12,-0.1 0.19,-0.1 0.19,-0.1 0.12,-0.1 0.22,-0.18 0.1,-0.19 0.16,-0.34 0.22,-0.75 0.28,-0.54 0.22,-0.28 v -0.62 l 0.1,-0.25 0.16,-0.19 0.34,-0.22 h 0.41 c 0.12,-0.69 0.56,-1.28 1.34,-1.53 l 0.1,-0.41 v -0.78 l 0.1,-0.22 0.12,-0.22 0.2,-0.2 0.13,-0.1 h 0.57 v -0.5 l 0.1,-0.5 0.1,-0.47 -0.1,-0.5 -0.1,-0.1 -0.12,-0.1 -0.23,-0.2 -0.12,-0.1 -0.41,-0.41 -0.15,-0.28 -0.1,-0.12 v -0.75 h -0.77 l -0.4,-0.4 -0.1,-0.28 -0.12,-0.31 h -0.82 l -0.43,-0.101 h -0.35 l -0.15,-0.09 -0.28,-0.187 -0.19,-0.156 -0.22,-0.282 -0.1,-0.25 v -0.343 l -0.66,-0.375 -0.56,-0.313 -0.47,-0.187 -0.37,-0.09 -0.63,-0.03 -0.37,-0.06 -0.32,-0.09 -0.18,-0.125 -0.28,-0.249 -0.29,-0.437 -0.18,-0.313 -0.47,-0.531 -0.47,-0.687 -0.47,-0.844 -0.25,-0.125 -0.31,-0.156 -0.75,-0.435 -0.25,-0.125 -0.22,-0.09 -0.13,-0.06 -0.12,-0.03 -0.13,-0.03 h -0.37 l -0.25,0.09 -0.84,0.406 -0.44,0.282 -0.41,0.187 -0.31,0.06 -0.66,-0.03 -0.65,-0.125 -0.66,-0.218 -0.53,-0.313 -0.81,-0.625 -0.35,-0.03 -0.34,-0.06 -0.44,-0.156 -0.65,-0.219 -0.41,-0.06 -0.34,0.06 -0.22,0.06 -0.19,0.09 -0.56,0.375 -0.53,0.437 -0.5,0.344 -0.5,0.219 -0.41,0.06 -0.44,-0.03 -0.15,0.03 -0.13,0.06 -0.25,0.156 -0.34,0.281 -0.41,0.344 -1.13,1.545 -0.11,-35.389 -29.52,-0.06 -19.02,-0.12 v 66.751 66 l 4.39,2.71 0.82,0.66 3.98,-1.23 3.98,-0.48 3.08,-0.25 1.98,1.44 4.98,1.61 3.36,1.8 0.52,1.89 0.68,1.49 h 2.78 l 1.1,5.92 2.7,7.8 1,4.6 2.2,3.7 0.7,5.2 1.4,4.2 0.4,6.7 1.6,4.3 49.2,-1.2 10,-0.6 8.3,-0.8 1.4,2.8 2.3,2.7 1.3,-1 -0.4,-1.7 0.5,-1.7 1.7,-1.4 1.4,-0.4 v -2.4 l 0.7,-1.8 1.9,-1.4 0.2,-3.5 -1.7,-1.5 -0.8,-1.8 1.6,-4.8 5.7,-1.5 1.6,-0.5 2.1,-1.6 0.6,-2.4 1.7,-3.7 0.7,-3 -0.6,-1.9 -3.8,-3.3 -0.5,-1.6 -0.9,-1.1 -2.5,-1 -0.2,-2.4 -0.9,-1.8 -2.4,-0.3 -3.1,-1.6 -2.6,-4.1 -0.3,-4 2,-3 -0.27,-0.76 -2.14,-2.24 -0.87,-3.6 z" />
    <path
       id="IL"
       d="M618.7 214.3l-.8-2.6-1.3-3.7-1.6-1.8-1.5-2.6-.4-5.5-15.9 1.8-17.4 1h-12.3l.2 2.1 2.2.9 1.1 1.4.4 1.4 3.9 3.4.7 2.4-.7 3.3-1.7 3.7-.8 2.7-2.4 1.9-1.9.6-5.2 1.3-1.3 4.1.6 1.1 1.9 1.8-.2 4.3-2.1 1.6-.5 1.3v2.8l-1.8.6-1.4 1.2-.4 1.2.4 2-1.6 1.3-.9 2.8.3 3.9 2.3 7 7 7.6 5.7 3.7v4.4l.7 1.2 6.6.6 2.7 1.4-.7 3.5-2.2 6.2-.8 3 2 3.7 6.4 5.3 4.8.8 2.2 5.1 2 3.4-.9 2.8 1.5 3.8 1.7 2.1 1.6-.3 1-2.2 2.4-1.7 2.8-1 6.1 2.5.5-.2v-1.1l-1.2-2.7.4-2.8 2.4-1.6 3.4-1.2-.5-1.3-.8-2 1.2-1.3 1-2.7v-4l.4-4.9 2.5-3 1.8-3.8 2.5-4-.5-5.3-1.8-3.2-.3-3.3.8-5.3-.7-7.2-1.1-15.8-1.4-15.3-.9-11.7z" />
    <path
       id="IN"
       d="M622.9 216.1l1.5 1 1.1-.3 2.1-1.9 2.5-1.8 14.3-1.1 18.4-1.8 1.6 15.5 4.9 42.6-.6 2.9 1.3 1.6.2 1.3-2.3 1.6-3.6 1.7-3.2.4-.5 4.8-4.7 3.6-2.9 4 .2 2.4-.5 1.4h-3.5l-1.4-1.7-5.2 3 .2 3.1-.9.2-.5-.9-2.4-1.7-3.6 1.5-1.4 2.9-1.2-.6-1.6-1.8-4.4.5-5.7 1-2.5 1.3v-2.6l.4-4.7 2.3-2.9 1.8-3.9 2.7-4.2-.5-5.8-1.8-3.1-.3-3.2.8-5.3-.7-7.1-.9-12.6-2.5-30.1z" />
    <path
       id="KY"
       d="M607.2 331.8l12.6-.7.1-4.1h4.3l30.4-3.2 45.1-4.3 5.6-3.6 3.9-2.1.1-1.9 6-7.8 4.1-3.6 2.1-2.4-3.3-2-2.5-2.7-3-3.8-.5-2.2-2.6-1.4-.9-1.9-.2-6.1-2.6-2-1.9-1.1-.5-2.3-1.3.2-2 1.2-2.5 2.7-1.9-1.7-2.5-.5-2.4 1.4h-2.3l-1.8-2-5.6-.1-1.8-4.5-2.9-1.5-2.1.8-4.2.2-.5 2.1 1.2 1.5.3 2.1-2.8 2-3.8 1.8-2.6.4-.5 4.5-4.9 3.6-2.6 3.7.2 2.2-.9 2.3-4.5-.1-1.3-1.3-3.9 2.2.2 3.3-2.4.6-.8-1.4-1.7-1.2-2.7 1.1-1.8 3.5-2.2-1-1.4-1.6-3.7.4-5.6 1-2.8 1.3-1.2 3.4-1 1 1.5 3.7-4.2 1.4-1.9 1.4-.4 2.2 1.2 2.4v2.2l-1.6.4-6.1-2.5-2.3.9-2 1.4-.8 1.8 1.7 2.4-.9 1.8-.1 3.3-2.4 1.3-2.1 1.7z" />
    <path
       id="LA"
       d="M526.9 485.9l8.1-.3 10.3 3.6 6.5 1.1 3.7-1.5 3.2 1.1 3.2 1 .8-2.1-3.2-1.1-2.6.5-2.7-1.6.8-1.5 3.1-1 1.8 1.5 1.8-1 3.2.6 1.5 2.4.3 2.3 4.5.3 1.8 1.8-.8 1.6-1.3.8 1.6 1.6 8.4 3.6 3.6-1.3 1-2.4 2.6-.6 1.8-1.5 1.3 1 .8 2.9-2.3.8.6.6 3.4-1.3 2.3-3.4.8-.5-2.1-.3.8-1.6-.2-1.5 2.1-.5 1.1-1.3.6.8.6 3.1 4.2.6 4 1.9 1 1.5h2.9l1.1 1 2.3-3.1V493h-1.3l-3.4-2.7-5.8-.8-3.2-2.3 1.1-2.7 2.3.3.2-.6-1.8-1v-.5h3.2l1.8-3.1-1.3-1.9-.3-2.7-1.5.2-1.9 2.1-.6 2.6-3.1-.6-1-1.8 1.8-1.9 1.9-1.7-2.2-6.5-3.4-3.4 1-7.3-.2-.5-1.3.2-33.1 1.4-.8-2.4.8-8.5 8.6-14.8-.9-2.6 1.4-.4.4-2-2.2-2 .1-1.9-2-4.5-.4-5.1.1-.7-26.4.8-25.2.1.4 9.7.7 9.5.5 3.7 2.6 4.5.9 4.4 4.3 6 .3 3.1.6.8-.7 8.3-2.8 4.6 1.2 2.4-.5 2.6-.8 7.3-1.3 3 .2 3.7z" />
    <path
       id="MA"
       d="M887.5 172.5l-.5-2.3.8-1.5 2.9-1.5.8 3.1-.5 1.8-2.4 1.5v1l1.9-1.5 3.9-4.5 3.9-1.9 4.2-1.5-.3-2.4-1-2.9-1.9-2.4-1.8-.8-2.1.2-.5.5 1 1.3 1.5-.8 2.1 1.6.8 2.7-1.8 1.8-2.3 1-3.6-.5-3.9-6-2.3-2.6h-1.8l-1.1.8-1.9-2.6.3-1.5 2.4-5.2-2.9-4.4-3.7 1.8-1.8 2.9-18.3 4.7-13.8 2.5-.6 10.6.7 4.9 22-4.8 11.2-2.8 2 1.6 3.4 4.3 2.9 4.7zm12.5 1.4l2.2-.7.5-1.7 1 .1 1 2.3-1.3.5-3.9.1zm-9.4.8l2.3-2.6h1.6l1.8 1.5-2.4 1-2.2 1z" />
    <path
       id="MD"
       d="M834.8 264.1l1.7-3.8.5-4.8-6.3 1.1-5.8.3-3.8-16.8-2.3-5.5-1.5-4.6-22.2 4.3-37.6 7.6 2 10.4 4.8-4.9 2.5-.7 1.4-1.5 1.8-2.7 1.6.7 2.6-.2 2.6-2.1 2-1.5 2.1-.6 1.5 1.1 2.7 1.4 1.9 1.8 1.3 1.4 4.8 1.6-.6 2.9 5.8 2.1 2.1-2.6 3.7 2.5-2.1 3.3-.7 3.3-1.8 2.6v2.1l.3.8 2 1.3 3.4 1.1 4.3-.1 3.1 1 2.1.3 1-2.1-1.5-2.1v-1.8l-2.4-2.1-2.1-5.5 1.3-5.3-.2-2.1-1.3-1.3s1.5-1.6 1.5-2.3c0-.6.5-2.1.5-2.1l1.9-1.3 1.9-1.6.5 1-1.5 1.6-1.3 3.7.3 1.1 1.8.3.5 5.5-2.1 1 .3 3.6.5-.2 1.1-1.9 1.6 1.8-1.6 1.3-.3 3.4 2.6 3.4 3.9.5 1.6-.8 3.2 4.2 1 .4zm-14.5.2l1.1 2.5.2 1.8 1.1 1.9s.9-.9.9-1.2c0-.3-.7-3.1-.7-3.1l-.7-2.3z" />
    <path
       id="ME"
       d="M865.8 91.9l1.5.4v-2.6l.8-5.5 2.6-4.7 1.5-4-1.9-2.4v-6l.8-1 .8-2.7-.2-1.5-.2-4.8 1.8-4.8 2.9-8.9 2.1-4.2h1.3l1.3.2v1.1l1.3 2.3 2.7.6.8-.8v-1l4-2.9 1.8-1.8 1.5.2 6 2.4 1.9 1 9.1 29.9h6l.8 1.9.2 4.8 2.9 2.3h.8l.2-.5-.5-1.1 2.8-.5 1.9 2.1 2.3 3.7V85l-2.1 4.7-1.9.6-3.4 3.1-4.8 5.5h-1.3c-.6 0-1-2.1-1-2.1l-1.8.2-1 1.5-2.4 1.5-1 1.5 1.6 1.5-.5.6-.5 2.7-1.9-.2v-1.6l-.3-1.3-1.5.3-1.8-3.2-2.1 1.3 1.3 1.5.3 1.1-.8 1.3.3 3.1.2 1.6-1.6 2.6-2.9.5-.3 2.9-5.3 3.1-1.3.5-1.6-1.5-3.1 3.6 1 3.2-1.5 1.3-.2 4.4-1.1 6.3-2.2-.9-.5-3.1-4-1.1-.2-2.5-11.7-37.43zm36.5 15.6l1.5-1.5 1.4 1.1.6 2.4-1.7.9zm6.7-5.9l1.8 1.9s1.3.1 1.3-.2c0-.3.2-2 .2-2l.9-.8-.8-1.8-2 .7z" />
    <path
       id="MI"
       d="M644.5 211l19.1-1.9.2 1.1 9.9-1.5 12-1.7.1-.6.2-1.5 2.1-3.7 2-1.7-.2-5.1 1.6-1.6 1.1-.3.2-3.6 1.5-3 1.1.6.2.6.8.2 1.9-1-.4-9.1-3.2-8.2-2.3-9.1-2.4-3.2-2.6-1.8-1.6 1.1-3.9 1.8-1.9 5-2.7 3.7-1.1.6-1.5-.6s-2.6-1.5-2.4-2.1c.2-.6.5-5 .5-5l3.4-1.3.8-3.4.6-2.6 2.4-1.6-.3-10-1.6-2.3-1.3-.8-.8-2.1.8-.8 1.6.3.2-1.6-2.6-2.2-1.3-2.6h-2.6l-4.5-1.5-5.5-3.4h-2.7l-.6.6-1-.5-3.1-2.3-2.9 1.8-2.9 2.3.3 3.6 1 .3 2.1.5.5.8-2.6.8-2.6.3-1.5 1.8-.3 2.1.3 1.6.3 5.5-3.6 2.1-.6-.2v-4.2l1.3-2.4.6-2.4-.8-.8-1.9.8-1 4.2-2.7 1.1-1.8 1.9-.2 1 .6.8-.6 2.6-2.3.5v1.1l.8 2.4-1.1 6.1-1.6 4 .6 4.7.5 1.1-.8 2.4-.3.8-.3 2.7 3.6 6 2.9 6.5 1.5 4.8-.8 4.7-1 6-2.4 5.2-.3 2.7-3.2 3.1zm-33.3-72.4l-1.3-1.1-1.8-10.4-3.7-1.3-1.7-2.3-12.6-2.8-2.8-1.1-8.1-2.2-7.8-1-3.9-5.3.7-.5 2.7-.8 3.6-2.3v-1l.6-.6 6-1 2.4-1.9 4.4-2.1.2-1.3 1.9-2.9 1.8-.8 1.3-1.8 2.3-2.3 4.4-2.4 4.7-.5 1.1 1.1-.3 1-3.7 1-1.5 3.1-2.3.8-.5 2.4-2.4 3.2-.3 2.6.8.5 1-1.1 3.6-2.9 1.3 1.3h2.3l3.2 1 1.5 1.1 1.5 3.1 2.7 2.7 3.9-.2 1.5-1 1.6 1.3 1.6.5 1.3-.8h1.1l1.6-1 4-3.6 3.4-1.1 6.6-.3 4.5-1.9 2.6-1.3 1.5.2v5.7l.5.3 2.9.8 1.9-.5 6.1-1.6 1.1-1.1 1.5.5v7l3.2 3.1 1.3.6 1.3 1-1.3.3-.8-.3-3.7-.5-2.1.6-2.3-.2-3.2 1.5h-1.8l-5.8-1.3-5.2.2-1.9 2.6-7 .6-2.4.8-1.1 3.1-1.3 1.1-.5-.2-1.5-1.6-4.5 2.4h-.6l-1.1-1.6-.8.2-1.9 4.4-1 4-3.2 6.9zm-29.6-56.5l1.8-2.1 2.2-.8 5.4-3.9 2.3-.6.5.5-5.1 5.1-3.3 1.9-2.1.9zm86.2 32.1l.6 2.5 3.2.2 1.3-1.2s-.1-1.5-.4-1.6c-.3-.2-1.6-1.9-1.6-1.9l-2.2.2-1.6.2-.3 1.1z" />
    <path
       id="MO"
       d="M593.1 338.7l.5-5.9 4.2-3.4 1.9-1v-2.9l.7-1.6-1.1-1.6-2.4.3-2.1-2.5-1.7-4.5.9-2.6-2-3.2-1.8-4.6-4.6-.7-6.8-5.6-2.2-4.2.8-3.3 2.2-6 .6-3-1.9-1-6.9-.6-1.1-1.9v-4.1l-5.3-3.5-7.2-7.8-2.3-7.3-.5-4.2.7-2.4-2.6-3.1-1.2-2.4-7.7.8-10 .6-48.8 1.2 1.3 2.6-.1 2.2 2.3 3.6 3 3.9 3.1 3 2.6.2 1.4 1.1v2.9l-1.8 1.6-.5 2.3 2.1 3.2 2.4 3 2.6 2.1 1.3 11.6-.8 40 .5 5.7 23.7-.2 23.3-.7 32.5-1.3 2.2 3.7-.8 3.1-3.1 2.5-.5 1.8 5.2.5 4.1-1.1z" />
    <path
       id="MS"
       d="M604.3 472.5l2.6-4.2 1.8.8 6.8-1.9 2.1.3 1.5.8h5.2l.4-1.6-1.7-14.8-2.8-19 1-45.1-.2-16.7.2-6.3-4.8.3-19.6 1.6-13 .4-.2 3.2-2.8 1.3-2.6 5.1.5 1.6.1 2.4-2.9 1.1-3.5 5.1.8 2.3-3 2.5-1 5.7-.6 1.9 1.6 2.5-1.5 1.4 1.5 2.8.3 4.2-1.2 2.5-.2.9.4 5 2 4.5-.1 1.7 2.3 2-.7 3.1-.9.3.6 1.9-8.6 15-.8 8.2.5 1.5 24.2-.7 8.2-.7 1.9-.3.6 1.4-1 7.1 3.3 3.3 2.2 6.4z" />
    <path
       id="NC"
       d="M786.7 357.7L774 350l-3.1-.8-16.6 2.1-1.6-3-2.8-2.2-16.7.5-7.4.9-9.2 4.5-6.8 2.7-6.5 1.2-13.4 1.4.1-4.1 1.7-1.3 2.7-.7.7-3.8 3.9-2.5 3.9-1.5 4.5-3.7 4.4-2.3.7-3.2 4.1-3.8.7 1 2.5.2 2.4-3.6 1.7-.4 2.6.3 1.8-4 2.5-2.4.5-1.8.1-3.5 4.4.1 38.5-5.6 57.5-12.3 2 4.8 3.6 6.5 2.4 2.4.6 2.3-2.4.2.8.6-.3 4.2-2.6 1.3-.6 2.1-1.3 2.9-3.7 1.6-2.4-.3-1.5-.2-1.6-1.3.3 1.3v1h1.9l.8 1.3-1.9 6.3h4.2l.6 1.6 2.3-2.3 1.3-.5-1.9 3.6-3.1 4.8H828l-1.1-.5-2.7.6-5.2 2.4-6.5 5.3-3.4 4.7-1.9 6.5-.5 2.4-4.7.5-5.1 1.5zm49.3-26.2l2.6-2.5 3.2-2.6 1.5-.6.2-2-.6-6.1-1.5-2.3-.6-1.9.7-.2 2.7 5.5.4 4.4-.2 3.4-3.4 1.5-2.8 2.4-1.1 1.2z" />
    <path
       id="NH"
       d="M881.7 141.3l1.1-3.2-2.7-1.2-.5-3.1-4.1-1.1-.3-3-11.7-37.48-.7.08-.6 1.6-.6-.5-1-1-1.5 1.9-.2 2.29.5 8.41 1.9 2.8v4.3l-3.9 4.8-2.4.9v.7l1.1 1.9v8.6l-.8 9.2-.2 4.7 1 1.4-.2 4.7-.5 1.5 1 1.1 5.1-1.2 13.8-3.5 1.7-2.9 4-1.9z" />
    <path
       id="NJ"
       d="M823.7 228.3l.1-1.5 2.7-1.3 1.7-2.8 1.7-2.4 3.3-3.2v-1.2l-6.1-4.1-1-2.7-2.7-.3-.1-.9-.7-2.2 2.2-1.1.2-2.9-1.3-1.3.2-1.2 1.9-3.1V193l2.5-3.1 5.6 2.5 6.4 1.9 2.5 1.2.1 1.8-.5 2.7.4 4.5-2.1 1.9-1.1 1 .5.5 2.7-.3 1.1-.8 1.6 3.4.2 9.4.6 1.1-1.1 5.5-3.1 6.5-2.7 4-.8 4.8-2.1 2.4h-.8l-.3-2.7.8-1-.2-1.5-4-.6-4.8-2.3-3.2-2.9-1-2z" />
    <path
       id="NY"
       d="M843.4 200l.5-2.7-.2-2.4-3-1.5-6.5-2-6-2.6-.6-.4-2.7-.3-2-1.5-2.1-5.9-3.3-.5-2.4-2.4-38.4 8.1-31.6 6-.5-6.5 1.6-1.2 1.3-1.1 1-1.6 1.8-1.1 1.9-1.8.5-1.6 2.1-2.7 1.1-1-.2-1-1.3-3.1-1.8-.2-1.9-6.1 2.9-1.8 4.4-1.5 4-1.3 3.2-.5 6.3-.2 1.9 1.3 1.6.2 2.1-1.3 2.6-1.1 5.2-.5 2.1-1.8 1.8-3.2 1.6-1.9h2.1l1.9-1.1.2-2.3-1.5-2.1-.3-1.5 1.1-2.1v-1.5h-1.8l-1.8-.8-.8-1.1-.2-2.6 5.8-5.5.6-.8 1.5-2.9 2.9-4.5 2.7-3.7 2.1-2.4 2.4-1.8 3.1-1.2 5.5-1.3 3.2.2 4.5-1.5 7.4-2.2.7 4.9 2.4 6.5.8 5-1 4.2 2.6 4.5.8 2-.9 3.2 3.7 1.7 2.7 10.2v5.8l-.6 10.9.8 5.4.7 3.6 1.5 7.3v8.1l-1.1 2.3 2.1 2.7.5.9-1.9 1.8.3 1.3 1.3-.3 1.5-1.3 2.3-2.6 1.1-.6 1.6.6 2.3.2 7.9-3.9 2.9-2.7 1.3-1.5 4.2 1.6-3.4 3.6-3.9 2.9-7.1 5.3-2.6 1-5.8 1.9-4 1.1-1-.4z" />
    <path
       id="OH"
       d="M663.8 211.2l1.7 15.5 4.8 41.1 3.9-.2 2.3-.8 3.6 1.8 1.7 4.2 5.4.1 1.8 2h1.7l2.4-1.4 3.1.5 1.5 1.3 1.8-2 2.3-1.4 2.4-.4.6 2.7 1.6 1 2.6 2 .8.2 2-.1 1.2-.6v-2.1l1.7-1.5.1-4.8 1.1-4.2 1.9-1.3 1 .7 1 1.1.7.2.4-.4-.9-2.7v-2.2l1.1-1.4 2.5-3.6 1.3-1.5 2.2.5 2.1-1.5 3-3.3 2.2-3.7.2-5.4.5-5V230l-1.2-3.2 1.2-1.8 1.3-1.2-.6-2.8-4.3-25.6-6.2 3.7-3.9 2.3-3.4 3.7-4 3.9-3.2.8-2.9.5-5.5 2.6-2.1.2-3.4-3.1-5.2.6-2.6-1.5-2.2-1.3z" />
    <path
       id="PA"
       d="M736.6 192.2l1.3-.5 5.7-5.5.7 6.9 33.5-6.5 36.9-7.8 2.3 2.3 3.1.4 2 5.6 2.4 1.9 2.8.4.1.1-2.6 3.2v3.1l-1.9 3.1-.2 1.9 1.3 1.3-.2 1.9-2.4 1.1 1 3.4.2 1.1 2.8.3.9 2.5 5.9 3.9v.4l-3.1 3-1.5 2.2-1.7 2.8-2.7 1.2-1.4.3-2.1 1.3-1.6 1.4-22.4 4.3L757 241l-11.3 1.4-3.9.7-5.1-22.4-4.3-25.9z" />
    <path
       id="RI"
       d="M873.6 175.7l-.8-4.4-1.6-6 5.7-1.5 1.5 1.3 3.4 4.3 2.8 4.4-2.8 1.4-1.3-.2-1.1 1.8-2.4 1.9-2.8 1.1z" />
    <path
       id="SC"
       d="M759 413.6l-2.1-1-1.9-5.6-2.5-2.3-2.5-.5-1.5-4.6-3-6.5-4.2-1.8-1.9-1.8-1.2-2.6-2.4-2-2.3-1.3-2.2-2.9-3.2-2.4-4.4-1.7-.4-1.4-2.3-2.8-.5-1.5-3.8-5.4-3.4.1-3.9-2.5-1.2-1.2-.2-1.4.6-1.6 2.7-1.3-.8-2 6.4-2.7 9.2-4.5 7.1-.9 16.4-.5 2.3 1.9 1.8 3.5 4.6-.8 12.6-1.5 2.7.8 12.5 7.4 10.1 8.3-5.3 5.4-2.6 6.1-.5 6.3-1.6.8-1.1 2.7-2.4.6-2.1 3.6-2.7 2.7-2.3 3.4-1.6.8-3.6 3.4-2.9.2 1 3.2-5 5.3-2.3 1.6z" />
    <path
       id="TN"
       d="M670.8 359.6l-13.1 1.2-23.3 2.2-37.6 2.7-11.8.4.9-.6.9-4.5-1.2-3.6 3.9-2.3.4-2.5 1.2-4.3 3-9.5.5-5.6.3-.2 12.3-.2 13.6-.8.1-3.9 3.5-.1 30.4-3.3 54-5.2 10.3-1.5 7.6-.2 2.4-1.9 1.3.3-.1 3.3-.4 1.6-2.4 2.2-1.6 3.6-2-.4-2.4.9-2.2 3.3-1.4-.2-.8-1.2-1.1.4-4.3 4-.8 3.1-4.2 2.2-4.3 3.6-3.8 1.5-4.4 2.8-.6 3.6-2.5.5-2 1.7-.2 4.8z" />
    <path
       id="VA"
       d="m 834.7,265.2 -0.2,2.8 -2.9,3.8 -0.4,4.6 0.5,3.4 -1.8,5 -2.2,1.9 -1.5,-4.6 0.4,-5.4 1.6,-4.2 0.7,-3.3 -0.1,-1.7 z m -42.8,-18.5 -0.6,2.9 8.6,3.1 1.4,1.8 -0.8,3.3 -1.3,1.3 -0.5,1.7 0.5,2.4 2,1.3 3.9,1.4 2.9,1 4.9,0.9 2.2,2.1 3.2,0.4 0.9,1.2 -0.4,4.7 1.4,1.1 -0.5,1.9 1.2,0.8 -0.2,1.4 -2.7,-0.1 0.1,1.6 2.3,1.5 0.1,1.4 1.8,1.8 0.5,2.5 -2.6,1.4 1.6,1.5 5.8,-1.7 3.7,6.2 -56.9,12.3 -38.6,5.6 -4.8,-0.1 -2.2,-0.3 -2.5,1.9 -7.3,0.1 -10.3,1.6 -6.7,0.6 4.1,-2.6 4.1,-2.3 v -2.1 l 5.7,-7.3 4.1,-3.7 2.2,-2.5 0.8974,-0.7267 -4.0974,-2.5733 -2.5,-2.5 -2.9,-3.7 -0.5,-2.3 -2.8,-1.7 -0.6,-1.3 -0.2,-5.6 0.3,0.1 2.4,-0.2 1.8,-1 v -2.2 l 1.7,-1.5 0.1,-5.2 0.9,-3.6 1.1,-0.7 0.4,0.3 1,1.1 1.7,0.5 1.1,-1.3 -1,-3.1 v -1.6 l 3.1,-4.6 1.2,-1.3 2,0.5 2.6,-1.8 3.1,-3.4 2.4,-4.1 0.2,-5.6 0.5,-4.8 v -4.9 l -1.1,-3 0.9,-1.3 0.8,-0.7 4.3,19.3 4.3,-0.8 11.2,-1.3 2.4,12.2 5.8,-6 2.6,-0.8 1.6,-1.5 1.5,-2.2 1.1,0.3 3.1,-0.2 4.6,-3.6 1.5,-0.5 1.3,1 2.6,1.2 3.28,3.28 z" />
    <path
       id="VT"
       d="M832.7 111.3l2.4 6.5.8 5.3-1 3.9 2.5 4.4.9 2.3-.7 2.6 3.3 1.5 2.9 10.8v5.3l11.5-2.1-1-1.1.6-1.9.2-4.3-1-1.4.2-4.7.8-9.3v-8.5l-1.1-1.8v-1.6l2.8-1.1 3.5-4.4v-3.6l-1.9-2.7-.3-5.79-26.1 6.79z" />
    <path
       id="WI"
       d="m 528.09,151.59 -0.9,-1.04 -0.51,-0.65 -0.5,-0.34 -0.34,-0.12 -0.42,-0.34 -0.5,-0.49 -0.82,-1.39 -0.6,-0.34 -0.62,-0.13 -0.54,-0.25 -0.18,-0.11 -0.22,-0.79 -0.71,-0.21 -0.12,-0.27 v -0.94 l -0.44,-0.6 -0.19,-0.31 -0.19,-0.68 -0.41,-0.73 -0.97,-0.93 -0.78,-0.67 -1.18,-0.69 -1.15,-0.42 -0.51,-0.23 -0.26,-0.17 -0.89,-0.79 -0.73,-0.27 -0.96,-0.11 -0.35,-0.1 -1.01,-0.6 -0.6,-0.38 -0.64,-0.1 -0.21,-0.1 -0.22,-0.16 -0.14,-0.28 0.12,-2.15 -0.77,-0.44 -0.1,-0.1 -0.12,-0.2 -0.1,-0.45 v -0.63 l 0.11,-0.63 -0.15,-1.08 -0.32,-0.6 -0.42,-0.3 -0.35,-0.46 0.1,-0.54 -0.11,-0.96 0.21,-2.43 -1.24,-0.28 v -1.89 l 0.22,-1.16 v -0.97 l -0.11,-0.76 0.15,-0.6 0.2,-0.25 0.42,-0.44 0.49,-0.72 0.42,-1.02 0.23,-0.49 0.26,-0.13 0.18,-0.11 0.32,-0.19 0.38,-0.29 0.19,-0.11 0.11,-0.1 h 0.12 l 2.56,-0.4 1.21,-0.28 0.42,-0.75 0.17,-0.21 0.13,-0.15 0.13,-0.1 0.19,-0.15 0.38,-0.2 0.21,-0.17 0.39,-0.32 0.22,-0.41 0.21,-0.44 0.21,-0.73 0.18,-0.35 0.4,-0.5 c 0,0 -0.28,-0.44 -0.1,-0.66 0.14,-0.18 0.45,0 0.45,0 0.54,-1.22 1.14,-1.93 1.8,-2.06 l 0.19,-0.77 v -0.67 -0.1 c 0,0 0.91,0.1 0.98,0 0.1,-0.1 0,-1.28 0,-1.28 l 0.1,-0.41 0.14,-0.64 -0.19,-0.95 -0.32,-0.32 -0.14,-0.12 -0.23,-0.2 -0.1,-0.1 -0.28,-0.28 -0.1,-0.18 v -1.3 h -1.29 v -0.11 l -0.34,-0.878 h -1.36 l -0.43,-0.103 h -0.21 l -0.15,-0.1 -0.1,-0.06 -0.1,-0.107 -0.1,-0.299 v -0.288 l -1.03,-0.581 -0.61,-0.343 -0.56,-0.222 -0.49,-0.117 -0.65,-0.03 -0.29,-0.05 -0.16,-0.08 -0.2,-0.178 -0.22,-0.336 -0.21,-0.356 -0.49,-0.552 -0.42,-0.62 -0.57,-1.016 -0.46,-0.234 -0.29,-0.144 -0.75,-0.433 -0.29,-0.15 -0.37,-0.153 -0.16,-0.08 -0.3,-0.07 h -0.6 l -0.42,0.15 -0.92,0.444 -0.43,0.273 -0.27,0.127 -0.13,0.02 -0.51,-0.03 -0.54,-0.107 -0.53,-0.171 -0.41,-0.239 -0.96,-0.738 -0.55,-0.05 -0.24,-0.04 -0.38,-0.133 -0.72,-0.24 -0.62,-0.09 -0.49,0.1 -0.32,0.09 -0.3,0.148 -0.64,0.426 -0.54,0.442 -0.41,0.279 -0.34,0.146 -0.22,0.03 -0.46,-0.03 -0.34,0.07 -0.26,0.122 -0.33,0.21 -0.45,0.419 -0.1,-33.007 0.16,-8.099 0.65,-0.156 2.32,0.507 1.94,0.812 0.81,5.5 1.44,6.156 1.59,1.594 h 4.85 l 0.34,1.469 6.25,0.312 v 2.094 h 4.85 l 0.31,-1.281 1.12,-1.125 2.28,-0.656 1.29,0.968 h 2.9 l 3.88,2.594 5.37,2.438 2.44,0.468 0.47,-0.968 1.47,-0.469 0.47,2.906 2.59,1.281 0.47,-0.468 1.31,0.156 v 2.094 l 2.6,0.968 h 3.06 l 1.62,-0.812 3.22,-3.219 2.6,-0.5 0.81,1.781 0.47,1.282 h 0.97 l 0.97,-0.782 8.9,-0.343 1.78,3.093 h 0.63 l 0.72,-1.093 4.44,-0.375 -0.6,2.281 -3.94,1.844 -9.25,4.062 -4.78,2 -3.06,2.594 -2.44,3.531 -2.25,3.906 -1.78,0.804 -4.53,5.03 -1.28,0.16 -3.85,2.94 -2.53,2.84 0.83,0.71 2.42,-2.79 1,0.7 2.9,0.5 2.9,-0.6 7.4,-3.2 2.9,-1.9 2.1,-0.8 1.9,1.5 -1.1,1.1 -1.9,3.1 -0.6,1.9 1,0.6 1.8,-1 1.1,-0.2 2.7,0.8 0.6,1.1 1.1,0.2 0.6,-1.1 4,5.3 8.2,1.2 8.2,2.2 2.6,1.1 12.3,2.6 1.6,2.3 3.6,1.2 1.7,10.2 1.6,1.4 1.5,0.9 -1.1,2.3 -1.8,1.6 -2.1,4.7 -1.3,2.4 0.2,1.8 1.5,0.3 1.1,-1.9 1.5,-0.8 0.8,-2.3 1.9,-1.8 2.7,-4 4.2,-6.3 0.8,-0.5 0.3,1 -0.2,2.3 -2.9,6.8 -2.7,5.7 -0.5,3.2 -0.6,2.6 0.8,1.28 -0.2,2.72 -1.9,2.4 -0.5,1.8 0.6,3.59 0.6,3.41 -1.5,2.59 -0.8,2.91 -1,3.09 1.1,2.41 0.6,6.09 1.6,4.5 -0.2,3 -15.9,1.81 -17.5,1 h -12.7 l -0.7,-1.5 -2.9,-0.4 -2.6,-1.3 -2.3,-3.7 -0.3,-3.6 2,-2.9 -0.5,-1.41 -2.1,-2.19 -0.8,-3.31 -0.6,-6.79 -2.1,-2.5 -7,-4.5 -3.8,-5.4 -3.4,-1 -2.2,-2.81 h -3.2 l -2.9,-3.29 -1.58,-1.4 -1.8,-0.39 z" />
    <path
       id="DC"
       d="M801.8 253.8l-1.1-1.6-1-.8 1.1-1.6 2.2 1.5z" />
  </g>
  <metadata
     id="metadata32">
    <rdf:RDF>
      <cc:Work
         rdf:about="">
        <dc:title>1844 US presidential election results</dc:title>
      </cc:Work>
    </rdf:RDF>
  </metadata>
</svg>